<mxfile host="app.diagrams.net" modified="2023-10-09T07:43:32.350Z" agent="Mozilla/5.0 (Macintosh; Intel Mac OS X 10_15_7) AppleWebKit/537.36 (KHTML, like Gecko) Chrome/117.0.0.0 Safari/537.36" etag="ZQb5uLZbjS-7l9M3Xnoj" version="21.8.2" type="github">
  <diagram name="第 1 页" id="39Kd_z_UxoBSTxUZc9L2">
    <mxGraphModel dx="954" dy="495" grid="1" gridSize="10" guides="1" tooltips="1" connect="1" arrows="1" fold="1" page="1" pageScale="1" pageWidth="827" pageHeight="1169" math="0" shadow="0">
      <root>
        <mxCell id="0" />
        <mxCell id="1" parent="0" />
        <mxCell id="MbKjoZ4Ikey-SuszsCGI-26" value="" style="edgeStyle=orthogonalEdgeStyle;rounded=0;orthogonalLoop=1;jettySize=auto;html=1;" edge="1" parent="1" source="MbKjoZ4Ikey-SuszsCGI-1" target="MbKjoZ4Ikey-SuszsCGI-4">
          <mxGeometry relative="1" as="geometry" />
        </mxCell>
        <mxCell id="MbKjoZ4Ikey-SuszsCGI-1" value="开始" style="ellipse;whiteSpace=wrap;html=1;aspect=fixed;" vertex="1" parent="1">
          <mxGeometry x="400" y="10" width="80" height="80" as="geometry" />
        </mxCell>
        <mxCell id="MbKjoZ4Ikey-SuszsCGI-29" value="" style="edgeStyle=orthogonalEdgeStyle;rounded=0;orthogonalLoop=1;jettySize=auto;html=1;" edge="1" parent="1" source="MbKjoZ4Ikey-SuszsCGI-2" target="MbKjoZ4Ikey-SuszsCGI-11">
          <mxGeometry relative="1" as="geometry" />
        </mxCell>
        <mxCell id="MbKjoZ4Ikey-SuszsCGI-30" value="" style="edgeStyle=orthogonalEdgeStyle;rounded=0;orthogonalLoop=1;jettySize=auto;html=1;" edge="1" parent="1" source="MbKjoZ4Ikey-SuszsCGI-2" target="MbKjoZ4Ikey-SuszsCGI-6">
          <mxGeometry relative="1" as="geometry" />
        </mxCell>
        <mxCell id="MbKjoZ4Ikey-SuszsCGI-2" value="计算标准保费" style="rounded=1;whiteSpace=wrap;html=1;absoluteArcSize=1;arcSize=14;strokeWidth=2;" vertex="1" parent="1">
          <mxGeometry x="390" y="400" width="100" height="100" as="geometry" />
        </mxCell>
        <mxCell id="MbKjoZ4Ikey-SuszsCGI-28" value="" style="edgeStyle=orthogonalEdgeStyle;rounded=0;orthogonalLoop=1;jettySize=auto;html=1;" edge="1" parent="1" source="MbKjoZ4Ikey-SuszsCGI-3" target="MbKjoZ4Ikey-SuszsCGI-2">
          <mxGeometry relative="1" as="geometry" />
        </mxCell>
        <mxCell id="MbKjoZ4Ikey-SuszsCGI-3" value="按机构代码，险种代码，险别代码，保单起保日期，数据类型，业务类型分组" style="rounded=1;whiteSpace=wrap;html=1;absoluteArcSize=1;arcSize=14;strokeWidth=2;" vertex="1" parent="1">
          <mxGeometry x="390" y="250" width="100" height="100" as="geometry" />
        </mxCell>
        <mxCell id="MbKjoZ4Ikey-SuszsCGI-27" value="" style="edgeStyle=orthogonalEdgeStyle;rounded=0;orthogonalLoop=1;jettySize=auto;html=1;" edge="1" parent="1" source="MbKjoZ4Ikey-SuszsCGI-4" target="MbKjoZ4Ikey-SuszsCGI-3">
          <mxGeometry relative="1" as="geometry" />
        </mxCell>
        <mxCell id="MbKjoZ4Ikey-SuszsCGI-4" value="获取当前评估月份id&lt;br&gt;所有&lt;br&gt;的保单融合表数据" style="shape=parallelogram;html=1;strokeWidth=2;perimeter=parallelogramPerimeter;whiteSpace=wrap;rounded=1;arcSize=12;size=0.23;" vertex="1" parent="1">
          <mxGeometry x="345" y="120" width="190" height="100" as="geometry" />
        </mxCell>
        <mxCell id="MbKjoZ4Ikey-SuszsCGI-31" value="" style="edgeStyle=orthogonalEdgeStyle;rounded=0;orthogonalLoop=1;jettySize=auto;html=1;" edge="1" parent="1" source="MbKjoZ4Ikey-SuszsCGI-6" target="MbKjoZ4Ikey-SuszsCGI-7">
          <mxGeometry relative="1" as="geometry" />
        </mxCell>
        <mxCell id="MbKjoZ4Ikey-SuszsCGI-6" value="计算签单保费" style="rounded=1;whiteSpace=wrap;html=1;absoluteArcSize=1;arcSize=14;strokeWidth=2;" vertex="1" parent="1">
          <mxGeometry x="390" y="540" width="100" height="100" as="geometry" />
        </mxCell>
        <mxCell id="MbKjoZ4Ikey-SuszsCGI-32" value="" style="edgeStyle=orthogonalEdgeStyle;rounded=0;orthogonalLoop=1;jettySize=auto;html=1;" edge="1" parent="1" source="MbKjoZ4Ikey-SuszsCGI-7" target="MbKjoZ4Ikey-SuszsCGI-8">
          <mxGeometry relative="1" as="geometry" />
        </mxCell>
        <mxCell id="MbKjoZ4Ikey-SuszsCGI-7" value="计算批改保费" style="rounded=1;whiteSpace=wrap;html=1;absoluteArcSize=1;arcSize=14;strokeWidth=2;" vertex="1" parent="1">
          <mxGeometry x="390" y="670" width="100" height="100" as="geometry" />
        </mxCell>
        <mxCell id="MbKjoZ4Ikey-SuszsCGI-33" value="" style="edgeStyle=orthogonalEdgeStyle;rounded=0;orthogonalLoop=1;jettySize=auto;html=1;" edge="1" parent="1" source="MbKjoZ4Ikey-SuszsCGI-8" target="MbKjoZ4Ikey-SuszsCGI-9">
          <mxGeometry relative="1" as="geometry" />
        </mxCell>
        <mxCell id="MbKjoZ4Ikey-SuszsCGI-8" value="计算注销保费" style="rounded=1;whiteSpace=wrap;html=1;absoluteArcSize=1;arcSize=14;strokeWidth=2;" vertex="1" parent="1">
          <mxGeometry x="390" y="810" width="100" height="100" as="geometry" />
        </mxCell>
        <mxCell id="MbKjoZ4Ikey-SuszsCGI-35" value="" style="edgeStyle=orthogonalEdgeStyle;rounded=0;orthogonalLoop=1;jettySize=auto;html=1;" edge="1" parent="1" source="MbKjoZ4Ikey-SuszsCGI-9" target="MbKjoZ4Ikey-SuszsCGI-10">
          <mxGeometry relative="1" as="geometry" />
        </mxCell>
        <mxCell id="MbKjoZ4Ikey-SuszsCGI-9" value="计算退保保费" style="rounded=1;whiteSpace=wrap;html=1;absoluteArcSize=1;arcSize=14;strokeWidth=2;" vertex="1" parent="1">
          <mxGeometry x="390" y="940" width="100" height="100" as="geometry" />
        </mxCell>
        <mxCell id="MbKjoZ4Ikey-SuszsCGI-37" value="" style="edgeStyle=orthogonalEdgeStyle;rounded=0;orthogonalLoop=1;jettySize=auto;html=1;" edge="1" parent="1" source="MbKjoZ4Ikey-SuszsCGI-10" target="MbKjoZ4Ikey-SuszsCGI-19">
          <mxGeometry relative="1" as="geometry" />
        </mxCell>
        <mxCell id="MbKjoZ4Ikey-SuszsCGI-10" value="计算保费收入" style="rounded=1;whiteSpace=wrap;html=1;absoluteArcSize=1;arcSize=14;strokeWidth=2;" vertex="1" parent="1">
          <mxGeometry x="390" y="1080" width="100" height="100" as="geometry" />
        </mxCell>
        <mxCell id="MbKjoZ4Ikey-SuszsCGI-11" value="折币保费含税分组求和" style="shape=tape;whiteSpace=wrap;html=1;strokeWidth=2;size=0.19" vertex="1" parent="1">
          <mxGeometry x="220" y="417.5" width="100" height="65" as="geometry" />
        </mxCell>
        <mxCell id="MbKjoZ4Ikey-SuszsCGI-12" value="折币保费不含税分组求和" style="shape=tape;whiteSpace=wrap;html=1;strokeWidth=2;size=0.19" vertex="1" parent="1">
          <mxGeometry x="220" y="552" width="100" height="65" as="geometry" />
        </mxCell>
        <mxCell id="MbKjoZ4Ikey-SuszsCGI-13" value="批改类型为一般批改的折币保费不含税求和" style="shape=tape;whiteSpace=wrap;html=1;strokeWidth=2;size=0.19" vertex="1" parent="1">
          <mxGeometry x="220" y="687.5" width="100" height="65" as="geometry" />
        </mxCell>
        <mxCell id="MbKjoZ4Ikey-SuszsCGI-14" value="批改类型为注销的折币保费不含税求和" style="shape=tape;whiteSpace=wrap;html=1;strokeWidth=2;size=0.19" vertex="1" parent="1">
          <mxGeometry x="220" y="827.5" width="100" height="65" as="geometry" />
        </mxCell>
        <mxCell id="MbKjoZ4Ikey-SuszsCGI-15" value="批改类型为退保&lt;span style=&quot;background-color: initial;&quot;&gt;的折币保费不含税求和&lt;/span&gt;" style="shape=tape;whiteSpace=wrap;html=1;strokeWidth=2;size=0.19" vertex="1" parent="1">
          <mxGeometry x="220" y="957.5" width="100" height="65" as="geometry" />
        </mxCell>
        <mxCell id="MbKjoZ4Ikey-SuszsCGI-16" value="折币保费不含税求和" style="shape=tape;whiteSpace=wrap;html=1;strokeWidth=2;size=0.19" vertex="1" parent="1">
          <mxGeometry x="220" y="1097.5" width="100" height="65" as="geometry" />
        </mxCell>
        <mxCell id="MbKjoZ4Ikey-SuszsCGI-18" value="二级机构代码" style="shape=parallelogram;html=1;strokeWidth=2;perimeter=parallelogramPerimeter;whiteSpace=wrap;rounded=1;arcSize=12;size=0.23;" vertex="1" parent="1">
          <mxGeometry x="210" y="1360" width="100" height="60" as="geometry" />
        </mxCell>
        <mxCell id="MbKjoZ4Ikey-SuszsCGI-42" value="" style="edgeStyle=orthogonalEdgeStyle;rounded=0;orthogonalLoop=1;jettySize=auto;html=1;" edge="1" parent="1" source="MbKjoZ4Ikey-SuszsCGI-19" target="MbKjoZ4Ikey-SuszsCGI-21">
          <mxGeometry relative="1" as="geometry" />
        </mxCell>
        <mxCell id="MbKjoZ4Ikey-SuszsCGI-43" style="edgeStyle=orthogonalEdgeStyle;rounded=0;orthogonalLoop=1;jettySize=auto;html=1;" edge="1" parent="1" source="MbKjoZ4Ikey-SuszsCGI-19" target="MbKjoZ4Ikey-SuszsCGI-23">
          <mxGeometry relative="1" as="geometry" />
        </mxCell>
        <mxCell id="MbKjoZ4Ikey-SuszsCGI-19" value="计算机构代码和名称" style="rounded=1;whiteSpace=wrap;html=1;absoluteArcSize=1;arcSize=14;strokeWidth=2;" vertex="1" parent="1">
          <mxGeometry x="390" y="1220" width="100" height="100" as="geometry" />
        </mxCell>
        <mxCell id="MbKjoZ4Ikey-SuszsCGI-20" value="二级机构名称" style="shape=parallelogram;html=1;strokeWidth=2;perimeter=parallelogramPerimeter;whiteSpace=wrap;rounded=1;arcSize=12;size=0.23;" vertex="1" parent="1">
          <mxGeometry x="310" y="1360" width="100" height="60" as="geometry" />
        </mxCell>
        <mxCell id="MbKjoZ4Ikey-SuszsCGI-21" value="三级机构代码" style="shape=parallelogram;html=1;strokeWidth=2;perimeter=parallelogramPerimeter;whiteSpace=wrap;rounded=1;arcSize=12;size=0.23;" vertex="1" parent="1">
          <mxGeometry x="460" y="1360" width="100" height="60" as="geometry" />
        </mxCell>
        <mxCell id="MbKjoZ4Ikey-SuszsCGI-22" value="三级机构名称" style="shape=parallelogram;html=1;strokeWidth=2;perimeter=parallelogramPerimeter;whiteSpace=wrap;rounded=1;arcSize=12;size=0.23;" vertex="1" parent="1">
          <mxGeometry x="560" y="1360" width="100" height="60" as="geometry" />
        </mxCell>
        <mxCell id="MbKjoZ4Ikey-SuszsCGI-44" value="" style="edgeStyle=orthogonalEdgeStyle;rounded=0;orthogonalLoop=1;jettySize=auto;html=1;" edge="1" parent="1" source="MbKjoZ4Ikey-SuszsCGI-23" target="MbKjoZ4Ikey-SuszsCGI-24">
          <mxGeometry relative="1" as="geometry" />
        </mxCell>
        <mxCell id="MbKjoZ4Ikey-SuszsCGI-23" value="根据当前时间设置统计季度，统计月度" style="rounded=1;whiteSpace=wrap;html=1;absoluteArcSize=1;arcSize=14;strokeWidth=2;" vertex="1" parent="1">
          <mxGeometry x="390" y="1460" width="100" height="100" as="geometry" />
        </mxCell>
        <mxCell id="MbKjoZ4Ikey-SuszsCGI-45" value="" style="edgeStyle=orthogonalEdgeStyle;rounded=0;orthogonalLoop=1;jettySize=auto;html=1;" edge="1" parent="1" source="MbKjoZ4Ikey-SuszsCGI-24" target="MbKjoZ4Ikey-SuszsCGI-25">
          <mxGeometry relative="1" as="geometry" />
        </mxCell>
        <mxCell id="MbKjoZ4Ikey-SuszsCGI-24" value="根据保单融合表的保险起期设置统计季度，统计月度" style="rounded=1;whiteSpace=wrap;html=1;absoluteArcSize=1;arcSize=14;strokeWidth=2;" vertex="1" parent="1">
          <mxGeometry x="390" y="1590" width="100" height="100" as="geometry" />
        </mxCell>
        <mxCell id="MbKjoZ4Ikey-SuszsCGI-25" value="结束" style="ellipse;whiteSpace=wrap;html=1;aspect=fixed;" vertex="1" parent="1">
          <mxGeometry x="400" y="1720" width="80" height="80" as="geometry" />
        </mxCell>
        <mxCell id="MbKjoZ4Ikey-SuszsCGI-38" style="edgeStyle=orthogonalEdgeStyle;rounded=0;orthogonalLoop=1;jettySize=auto;html=1;entryX=0.57;entryY=-0.1;entryDx=0;entryDy=0;entryPerimeter=0;" edge="1" parent="1" source="MbKjoZ4Ikey-SuszsCGI-19" target="MbKjoZ4Ikey-SuszsCGI-18">
          <mxGeometry relative="1" as="geometry" />
        </mxCell>
        <mxCell id="MbKjoZ4Ikey-SuszsCGI-39" style="edgeStyle=orthogonalEdgeStyle;rounded=0;orthogonalLoop=1;jettySize=auto;html=1;entryX=0.58;entryY=-0.067;entryDx=0;entryDy=0;entryPerimeter=0;" edge="1" parent="1" source="MbKjoZ4Ikey-SuszsCGI-19" target="MbKjoZ4Ikey-SuszsCGI-20">
          <mxGeometry relative="1" as="geometry" />
        </mxCell>
        <mxCell id="MbKjoZ4Ikey-SuszsCGI-40" style="edgeStyle=orthogonalEdgeStyle;rounded=0;orthogonalLoop=1;jettySize=auto;html=1;entryX=0.57;entryY=-0.083;entryDx=0;entryDy=0;entryPerimeter=0;" edge="1" parent="1" source="MbKjoZ4Ikey-SuszsCGI-19" target="MbKjoZ4Ikey-SuszsCGI-21">
          <mxGeometry relative="1" as="geometry" />
        </mxCell>
        <mxCell id="MbKjoZ4Ikey-SuszsCGI-41" style="edgeStyle=orthogonalEdgeStyle;rounded=0;orthogonalLoop=1;jettySize=auto;html=1;entryX=0.58;entryY=-0.067;entryDx=0;entryDy=0;entryPerimeter=0;" edge="1" parent="1" source="MbKjoZ4Ikey-SuszsCGI-19" target="MbKjoZ4Ikey-SuszsCGI-22">
          <mxGeometry relative="1" as="geometry" />
        </mxCell>
      </root>
    </mxGraphModel>
  </diagram>
</mxfile>
